<?xml version="1.0" encoding="utf-8"?>
<!-- Generator: Adobe Illustrator 26.0.2, SVG Export Plug-In . SVG Version: 6.00 Build 0)  -->
<svg version="1.1" id="layer" xmlns="http://www.w3.org/2000/svg" xmlns:xlink="http://www.w3.org/1999/xlink" x="0px" y="0px"
	 viewBox="0 0 800 800" style="enable-background:new 0 0 800 800;" xml:space="preserve">
<style type="text/css">
	.st0{fill:#FFFFFF;}
</style>
<g>
	<path class="st0" d="M114,362.6c-7,0-12.7,5.7-12.7,12.7v111.3c0,7,5.7,12.7,12.5,12.7s12.7-5.7,12.7-12.7V375.4
		C126.6,368.2,120.8,362.6,114,362.6 M114,178c7,0,12.7-5.7,12.7-12.7V54c0-7.2-5.7-12.7-12.7-12.7S101.3,47,101.3,54v111.3
		C101.3,172.5,106.9,178,114,178 M218.2,375.4c0-7-5.7-12.7-12.7-12.7s-12.7,5.7-12.7,12.7v111.3c0,7,5.7,12.7,12.7,12.7
		s12.7-5.7,12.7-12.7V375.4L218.2,375.4z"/>
	<path class="st0" d="M398.2,178c7,0,12.7-5.7,12.7-12.7V54c0-7.2-5.7-12.7-12.7-12.7c-7,0-12.7,5.7-12.7,12.7v111.3
		C385.7,172.5,391.3,178,398.2,178"/>
	<path class="st0" d="M673.2,178c7,0,12.7-5.7,12.7-12.7V54c0-7.2-5.7-12.7-12.7-12.7c-7,0-12.7,5.7-12.7,12.7v111.3
		C660.5,172.5,666.2,178,673.2,178 M537.3,41.3c-37.6,0-68,30.6-68,68.4s30.4,68.4,68,68.4c37.6,0,68-30.6,68-68.4
		S574.8,41.3,537.3,41.3 M537.3,155.9c-25.3,0-45.8-20.5-45.8-46.2c0-25.5,20.5-46,45.8-46s45.8,20.5,45.8,46
		C583.1,135.3,562.7,155.9,537.3,155.9 M166,203.5c-37.6,0-68,30.6-68,68.4s30.4,68.4,68,68.4s68-30.6,68-68.4
		S203.6,203.5,166,203.5 M166,318.1c-25.3,0-45.8-20.7-45.8-46.2s20.5-46,45.8-46s45.8,20.7,45.8,46
		C211.8,297.3,191.5,318.1,166,318.1 M474,216.2v111.3c0,7,5.7,12.7,12.7,12.7c7,0,12.5-5.7,12.5-12.7V216.2
		c0-7.2-5.7-12.7-12.7-12.7C479.8,203.5,474,209.2,474,216.2 M316.1,109.7c0-37.8-30.4-68.4-68-68.4c-37.4,0-68,30.6-68,68.4
		s30.4,68.4,68,68.4S316.1,147.4,316.1,109.7 M248.1,155.9c-25.3,0-45.8-20.5-45.8-46.2c0-25.5,20.5-46,45.8-46
		c25.3,0,45.8,20.5,45.8,46C294.1,135.3,273.6,155.9,248.1,155.9 M535.8,362.6c-37.6,0-68,30.6-68,68.4s30.4,68.4,68,68.4
		c37.6,0,68-30.6,68-68.4C603.6,393.2,573.2,362.6,535.8,362.6 M535.8,477c-25.3,0-45.8-20.7-45.8-46.2s20.5-46,45.8-46
		c25.3,0,45.8,20.7,45.8,46C581.6,456.5,561.1,477,535.8,477"/>
	<path class="st0" d="M398.2,203.5c-7,0-12.7,5.7-12.7,12.7v111.3c0,7,5.7,12.7,12.7,12.7c7,0,12.7-5.7,12.7-12.7V216.2
		C411,209.2,405.2,203.5,398.2,203.5"/>
	<path class="st0" d="M673.2,362.6c-7,0-12.7,5.7-12.7,12.7v111.3c0,7,5.7,12.7,12.7,12.7c7,0,12.7-5.7,12.7-12.7V375.4
		C685.9,368.2,680.2,362.6,673.2,362.6"/>
	<path class="st0" d="M339.9,362.6c-37.6,0-68,30.6-68,68.4s30.4,68.4,68,68.4c37.6,0,68-30.6,68-68.4S377.3,362.6,339.9,362.6
		 M339.9,477c-25.3,0-45.8-20.7-45.8-46.2s20.5-46,45.8-46c25.3,0,45.8,20.7,45.8,46C385.7,456.5,365.2,477,339.9,477"/>
	<path class="st0" d="M313,216.2c0-7-5.7-12.7-12.7-12.7s-12.7,5.7-12.7,12.7v111.3c0,7,5.7,12.7,12.7,12.7c7,0,12.7-5.7,12.7-12.7
		V216.2L313,216.2z M621.1,203.5c-37.6,0-68,30.6-68,68.4s30.4,68.4,68,68.4c37.6,0,68-30.6,68-68.4S658.6,203.5,621.1,203.5
		 M621.1,318.1c-25.3,0-45.8-20.7-45.8-46.2s20.5-46,45.8-46c25.3,0,45.8,20.7,45.8,46C666.8,297.3,646.3,318.1,621.1,318.1"/>
	<path class="st0" d="M110.4,655.1c0,4.1-2.3,6.6-6,6.6c-3.7,0-6.2-2.5-6.2-6.6v-57.7h-4.9c-4.1,0-6.2-1.8-6.2-5.1s2.1-5.3,6.2-5.3
		h4.9v-17.5c0-10.7,7.4-16,16.2-16h3.7c3.1,0,7,2.1,7,5.3s-2.1,5.3-6.6,5.3h-3.1c-3.7,0-4.9,1.8-4.9,4.9v17.9h7.6
		c3.9,0,6.2,1.8,6.2,5.3c0,3.3-2.1,5.1-6.2,5.1h-7.6v57.7H110.4z M213.4,655.7c0,4.3-3.3,6-5.7,6s-5.7-1.6-5.7-6v-5.1h-0.4
		c-5.1,7.6-12.1,11.1-19.9,11.1c-20.7,0-32.4-18.3-32.4-37.8c0-19.7,11.7-37.8,32.4-37.8c8.4,0,14.4,3.5,19.9,9.9h0.4V592
		c0-4.3,3.1-6,5.7-6c2.3,0,5.7,1.6,5.7,6V655.7L213.4,655.7z M181.8,651c15,0,20.1-14.8,20.1-27.3c0-12.5-5.1-27.3-20.1-27.3
		s-20.1,14.8-20.1,27.3C161.7,636.4,167,651,181.8,651z M248.1,560c0-4.1,2.3-6.6,6.2-6.6c3.7,0,6.2,2.5,6.2,6.6v35.9h0.2
		c3.1-4.5,10.1-10.1,19.7-10.1c19.9,0,31.4,18.3,31.4,37.8c0,19.7-11.5,37.8-31.4,37.8c-9.7,0-16.2-3.5-19.7-10.1h-0.2v3.7
		c0,4.1-2.3,6.6-6.2,6.6c-3.7,0-6.2-2.5-6.2-6.6V560L248.1,560z M279.4,651c15,0,20.1-14.8,20.1-27.3s-5.3-27.3-20.1-27.3
		c-14.8,0-20.1,14.8-20.1,27.3C259.2,636.2,264.4,651,279.4,651z M360.1,655.1c0,4.1-2.3,6.6-6.2,6.6c-3.7,0-6.2-2.5-6.2-6.6v-57.7
		h-4.9c-3.9,0-6.2-1.8-6.2-5.1s2.1-5.3,6.2-5.3h4.9v-17.5c0-10.7,7.4-16,16.2-16h3.7c3.1,0,6.8,2.1,6.8,5.3s-2.1,5.3-6.6,5.3h-3.1
		c-3.7,0-4.9,1.8-4.9,4.9v17.9h7.6c3.9,0,6.2,1.8,6.2,5.3c0,3.3-2.1,5.1-6.2,5.1h-7.6v57.7H360.1z M413.7,560.8
		c4.1,0,7.4,3.3,7.4,7.6c0,4.1-3.3,7.4-7.4,7.4s-7.4-3.3-7.4-7.4C406.3,564.3,409.5,560.8,413.7,560.8L413.7,560.8z M419.8,655.1
		c0,4.1-2.3,6.6-6.2,6.6c-3.7,0-6-2.5-6-6.6v-62.6c0-4.1,2.3-6.6,6-6.6c3.7,0,6.2,2.5,6.2,6.6V655.1L419.8,655.1z M471.8,655.1
		c0,4.1-2.3,6.6-6.2,6.6c-3.7,0-6.2-2.5-6.2-6.6V560c0-4.1,2.3-6.6,6.2-6.6c3.7,0,6.2,2.5,6.2,6.6V655.1L471.8,655.1z M514.9,570.9
		c0-4.1,2.3-6.6,6.2-6.6c3.7,0,6.2,2.5,6.2,6.6v16h4.9c3.9,0,6.2,1.8,6.2,5.3c0,3.3-2.1,5.1-6.2,5.1h-4.9v57.7
		c0,4.1-2.3,6.6-6.2,6.6c-3.7,0-6.2-2.5-6.2-6.6v-57.7H510c-4.1,0-6.2-1.8-6.2-5.1s2.1-5.3,6.2-5.3h4.9V570.9z M577.1,628.6
		c0,12.7,8,22.6,21.8,22.6c16.2,0,20.3-10.1,24.8-10.1c2.3,0,4.3,1.8,4.3,5.3c0,6-15,15.2-29.4,15.2c-23.4,0-33.7-18.3-33.7-37.8
		c0-19.9,12.5-37.8,33.1-37.8c20.1,0,31.6,18.3,31.6,35.9c0,4.3-1.4,6.6-6.8,6.6L577.1,628.6L577.1,628.6z M617.6,619.3
		c0-10.5-6.2-22.8-19.5-22.8c-15-0.6-20.5,11.5-20.9,22.8H617.6L617.6,619.3z M661.3,592.4c0-4.1,2.3-6.6,6.2-6.6c3.7,0,6,2.5,6,6.6
		v6.4h0.4c2.7-5.7,9.4-12.7,16.6-12.7c4.3,0,6.8,2.7,6.8,6.2c0,3.5-2.5,5.7-7.6,6.6c-7.2,1.2-16,6.8-16,20.9v35.1
		c0,4.1-2.3,6.6-6,6.6s-6.2-2.5-6.2-6.6L661.3,592.4L661.3,592.4z M106.9,719.5c3.7,0,9,2.1,9,4.7c0,1-0.6,1.8-2.1,1.8
		c-1.8,0-2.7-2.7-7-2.7c-2.5,0-4.7,1.2-4.7,3.5c0,4.7,14.4,4.3,14.4,12.1c0,5.7-4.9,8.4-9.9,8.4c-5.7,0-10.1-2.9-10.1-5.1
		c0-1.2,0.8-2.1,1.8-2.1c2.1,0,3.7,3.3,8.4,3.3c3.3,0,5.1-1.8,5.1-3.7c0-5.3-14.4-5.1-14.4-12.5C97.6,722.2,102.3,719.5,106.9,719.5
		 M139.1,719.5c7.6,0,11.9,6.8,11.9,14c0,7.2-4.3,14-11.9,14s-11.9-6.8-11.9-14C127.2,726.3,131.5,719.5,139.1,719.5 M139.1,743.4
		c5.5,0,7.4-5.3,7.4-10.1c0-4.5-2.1-10.1-7.4-10.1c-5.5,0-7.4,5.3-7.4,10.1C131.7,738,133.8,743.4,139.1,743.4 M169.3,745
		c0,1.4-0.8,2.5-2.3,2.5c-1.4,0-2.3-0.8-2.3-2.5v-21.2h-1.8c-1.4,0-2.3-0.6-2.3-2.1c0-1.2,0.8-1.8,2.3-1.8h1.8v-6.4c0-3.9,2.7-6,6-6
		h1.4c1.2,0,2.5,0.6,2.5,1.8s-0.8,2.1-2.5,2.1h-1c-1.4,0-1.8,0.6-1.8,1.8v6.6h2.9c1.4,0,2.3,0.6,2.3,1.8s-0.8,2.1-2.3,2.1h-2.9V745
		L169.3,745z M185.5,714c0-1.4,0.8-2.5,2.3-2.5c1.2,0,2.3,1,2.3,2.5v6h1.8c1.4,0,2.3,0.6,2.3,1.8c0,1.2-0.8,2.1-2.3,2.1H190V745
		c0,1.4-0.8,2.5-2.3,2.5c-1.4,0-2.3-0.8-2.3-2.5v-21.2h-1.8c-1.4,0-2.3-0.6-2.3-2.1c0-1.2,0.8-1.8,2.3-1.8h1.8V714L185.5,714z
		 M202.6,723.2c-0.2-0.6-0.4-1.2-0.4-1.8c0-0.8,0.6-2.1,2.3-2.1c1,0,1.8,0.4,2.5,2.3l5.7,18.5h0.2l5.5-17.9c0.6-2.1,1-3.1,2.7-3.1
		s2.1,1,2.7,3.1l5.7,17.9h0.2l5.7-18.5c0.6-1.8,1.4-2.3,2.5-2.3c1.4,0,2.3,1.2,2.3,2.1c0,0.6-0.2,1-0.4,1.8l-7.4,21.8
		c-0.6,1.8-1.4,2.3-2.7,2.3s-2.1-0.6-2.5-2.5l-5.7-18.3h-0.2l-5.7,18.3c-0.6,1.8-1.4,2.3-2.5,2.3c-1.2,0-2.1-0.6-2.7-2.5
		L202.6,723.2L202.6,723.2z M272.6,745.2c0,1.6-1.2,2.3-2.1,2.3c-1,0-2.1-0.6-2.1-2.3v-1.8h-0.2c-1.8,2.7-4.5,4.1-7.4,4.1
		c-7.6,0-11.9-6.8-11.9-14s4.3-14,11.9-14c3.1,0,5.3,1.2,7.4,3.7h0.2v-1.4c0-1.6,1.2-2.3,2.1-2.3s2.1,0.6,2.1,2.3V745.2L272.6,745.2
		z M260.9,743.4c5.5,0,7.4-5.3,7.4-10.1c0-4.5-1.8-10.1-7.4-10.1c-5.5,0-7.4,5.3-7.4,10.1C253.5,738,255.5,743.4,260.9,743.4z
		 M286.1,722c0-1.4,0.8-2.5,2.3-2.5s2.3,1,2.3,2.5v2.3h0.2c1-2.1,3.5-4.7,6.2-4.7c1.6,0,2.5,1,2.5,2.3s-0.8,2.1-2.9,2.5
		c-2.7,0.4-6,2.5-6,7.6v12.9c0,1.4-0.8,2.5-2.3,2.5c-1.2,0-2.3-0.8-2.3-2.5L286.1,722L286.1,722z M312.4,735.1c0,4.7,3.1,8.2,8,8.2
		c6,0,7.4-3.7,9-3.7c0.8,0,1.6,0.6,1.6,2.1c0,2.3-5.5,5.5-10.9,5.5c-8.6,0-12.3-6.8-12.3-13.8c0-7.4,4.5-14,12.1-14
		c7.4,0,11.7,6.8,11.7,13.1c0,1.6-0.6,2.5-2.5,2.5L312.4,735.1L312.4,735.1z M327.4,731.9c0-3.9-2.3-8.4-7.2-8.4
		c-5.5-0.2-7.6,4.3-7.6,8.4H327.4L327.4,731.9z M368.9,710.3c1.4,0,2.7,1.2,2.7,2.7s-1.2,2.9-2.7,2.9c-1.4,0-2.7-1.2-2.7-2.9
		S367.2,710.3,368.9,710.3z M370.9,745c0,1.4-0.8,2.5-2.3,2.5c-1.4,0-2.3-0.8-2.3-2.5v-23c0-1.4,0.8-2.5,2.3-2.5
		c1.4,0,2.3,1,2.3,2.5V745L370.9,745z M384.5,722c0-1.4,0.8-2.5,2.3-2.5s2.3,1,2.3,2.5v1h0.2c2.1-2.5,4.7-3.5,7.4-3.5
		c4.1,0,9.4,2.7,9.4,10.3v15c0,1.4-0.8,2.5-2.3,2.5c-1.2,0-2.3-0.8-2.3-2.5V730c0-4.7-3.3-6.8-6.2-6.8s-6.4,1.8-6.4,6.8v14.8
		c0,1.4-0.8,2.5-2.3,2.5c-1.2,0-2.3-0.8-2.3-2.5V722L384.5,722z M428,719.5c3.7,0,9,2.1,9,4.7c0,1-0.6,1.8-2.1,1.8
		c-1.8,0-2.7-2.7-7-2.7c-2.5,0-4.7,1.2-4.7,3.5c0,4.7,14.4,4.3,14.4,12.1c0,5.7-4.9,8.4-9.9,8.4c-5.7,0-10.3-2.9-10.3-5.1
		c0-1.2,0.8-2.1,1.8-2.1c2.1,0,3.7,3.3,8.4,3.3c3.3,0,5.1-1.8,5.1-3.7c0-5.3-14.4-5.1-14.4-12.5C418.8,722.2,423.5,719.5,428,719.5
		 M451,714c0-1.4,0.8-2.5,2.3-2.5c1.4,0,2.3,1,2.3,2.5v6h1.8c1.4,0,2.3,0.6,2.3,1.8c0,1.2-0.8,2.1-2.3,2.1h-1.8V745
		c0,1.4-0.8,2.5-2.3,2.5c-1.2,0-2.3-0.8-2.3-2.5v-21.2h-1.8c-1.4,0-2.3-0.6-2.3-2.1c0-1.2,0.8-1.8,2.3-1.8h1.8V714L451,714z
		 M470.5,722c0-1.4,0.8-2.5,2.3-2.5s2.3,1,2.3,2.5v2.3l0,0c1-2.1,3.5-4.7,6.2-4.7c1.6,0,2.5,1,2.5,2.3s-0.8,2.1-2.9,2.5
		c-2.7,0.4-5.7,2.5-5.7,7.6v12.9c0,1.4-0.8,2.5-2.3,2.5c-1.2,0-2.3-0.8-2.3-2.5L470.5,722L470.5,722z M494.1,722
		c0-1.4,0.8-2.5,2.3-2.5s2.3,1,2.3,2.5v14.4c0,4.7,2.1,7.2,6.4,7.2c4.1,0,6.2-2.5,6.2-7.2V722c0-1.4,0.8-2.5,2.3-2.5
		c1.4,0,2.3,1,2.3,2.5v14.6c0,8-5.3,10.9-10.7,10.9c-5.5,0-10.7-2.9-10.7-10.9L494.1,722L494.1,722z M545.1,729.6
		c0-3.9-2.1-6.2-5.7-6.2c-3.7,0-5.7,2.5-5.7,6.2v15.2c0,1.4-0.8,2.5-2.3,2.5s-2.3-0.8-2.3-2.5v-23c0-1.4,0.8-2.5,2.3-2.5
		s2.3,1,2.3,2.5v0.8h0.2c1-1.4,2.7-3.3,6.8-3.3c2.7,0,5.3,1.2,7.4,4.5c2.1-2.9,4.3-4.5,8.2-4.5c4.1,0,9.4,2.7,9.4,10.3v15
		c0,1.4-0.8,2.3-2.3,2.3s-2.3-0.8-2.3-2.5v-15.2c0-3.9-2.1-6.4-5.7-6.4c-3.5,0-5.7,2.5-5.7,6.2v15.2c0,1.4-0.8,2.5-2.3,2.5
		s-2.3-0.8-2.3-2.5L545.1,729.6L545.1,729.6z M581.8,735.1c0,4.7,2.9,8.2,8,8.2c6,0,7.4-3.7,9-3.7c0.8,0,1.6,0.6,1.6,2.1
		c0,2.3-5.5,5.5-10.9,5.5c-8.6,0-12.3-6.8-12.3-13.8c0-7.4,4.5-14,12.1-14c7.4,0,11.7,6.8,11.7,13.1c0,1.6-0.6,2.5-2.5,2.5
		L581.8,735.1L581.8,735.1z M596.6,731.9c0-3.9-2.3-8.4-7.2-8.4c-5.5-0.2-7.4,4.3-7.6,8.4H596.6L596.6,731.9z M613,722
		c0-1.4,0.8-2.5,2.3-2.5s2.3,1,2.3,2.5v1h0.2c2.1-2.5,4.7-3.5,7.4-3.5c4.1,0,9.4,2.7,9.4,10.3v15c0,1.4-0.8,2.5-2.3,2.5
		s-2.3-0.8-2.3-2.5V730c0-4.7-3.3-6.8-6.2-6.8c-3.1,0-6.4,1.8-6.4,6.8v14.8c0,1.4-0.8,2.5-2.3,2.5s-2.3-0.8-2.3-2.5V722L613,722z
		 M649.2,714c0-1.4,0.8-2.5,2.3-2.5c1.4,0,2.3,1,2.3,2.5v6h1.8c1.4,0,2.3,0.6,2.3,1.8c0,1.2-0.8,2.1-2.3,2.1h-1.8V745
		c0,1.4-0.8,2.5-2.3,2.5c-1.2,0-2.3-0.8-2.3-2.5v-21.2h-1.8c-1.4,0-2.3-0.6-2.3-2.1c0-1.2,0.8-1.8,2.3-1.8h1.8V714L649.2,714z
		 M677.3,719.5c3.7,0,9,2.1,9,4.7c0,1-0.6,1.8-2.1,1.8c-1.8,0-2.7-2.7-7-2.7c-2.5,0-4.7,1.2-4.7,3.5c0,4.7,14.4,4.3,14.4,12.1
		c0,5.7-4.9,8.4-9.9,8.4c-5.7,0-10.1-2.9-10.1-5.1c0-1.2,0.8-2.1,1.8-2.1c2.1,0,3.7,3.3,8.4,3.3c3.3,0,5.1-1.8,5.1-3.7
		c0-5.3-14.4-5.1-14.4-12.5C668.1,722.2,672.6,719.5,677.3,719.5"/>
</g>
</svg>
