<?xml version="1.0" encoding="utf-8"?>
<!-- Generator: Adobe Illustrator 26.0.2, SVG Export Plug-In . SVG Version: 6.00 Build 0)  -->
<svg version="1.1" id="Layer_1" xmlns="http://www.w3.org/2000/svg" xmlns:xlink="http://www.w3.org/1999/xlink" x="0px" y="0px"
	 viewBox="0 0 800 800" style="enable-background:new 0 0 800 800;" xml:space="preserve">
<style type="text/css">
	.st0{fill:#FFFFFF;}
</style>
<path class="st0" d="M111.7,339c-16.6,0-30.1,13.5-30.1,30.1v135.7H37.6V411H0V367h37.6c1-40.2,33.9-72.3,74.1-72.3h44v44.1
	L111.7,339z M355.9,400.3c-3.6,0-6.8,2.3-7.9,5.8l-17.7,61.1c-8.1,27.6-37.1,43.4-64.7,35.3c-17-5-30.3-18.3-35.3-35.3l-17.7-61.2
	c-1.5-4.4-6.3-6.7-10.7-5.2c-2.5,0.8-4.4,2.8-5.2,5.2l-17.7,61.2c-6.6,22.3-27.2,37.5-50.4,37.4h-12.3v-44h12.4
	c3.6,0,6.7-2.3,7.8-5.7l17.7-61.2c8.3-27.7,37.4-43.5,65.1-35.2c16.9,5,30.1,18.3,35.2,35.2l17.9,61.2c1.3,4.3,5.9,6.8,10.2,5.5
	c2.6-0.8,4.7-2.9,5.5-5.5l17.7-61.1c8.3-27.7,37.4-43.5,65.1-35.2c16.9,5,30.1,18.3,35.2,35.2l17.7,61.1c1.1,3.4,4.2,5.8,7.8,5.8
	h12.5v44h-12.3c-23.2,0.1-43.8-15.2-50.4-37.4l-17.7-61.2C362.6,402.8,359.5,400.4,355.9,400.3L355.9,400.3z M445.6,430.5
	c0-41,33.2-74.2,74.2-74.2s74.2,33.2,74.2,74.2c0,41-33.2,74.2-74.2,74.2C478.8,504.7,445.6,471.5,445.6,430.5L445.6,430.5z
	 M549.9,430.5c0-16.6-13.5-30.1-30.1-30.1c-16.6,0-30.1,13.5-30.1,30.1c0,16.6,13.5,30.1,30.1,30.1l0,0
	C536.4,460.6,549.9,447.2,549.9,430.5z M705.7,445.9c0.8-1.3,1.6-2.7,2.2-4.1c5.6-11,19.1-15.3,30.1-9.7
	c7.5,3.8,12.2,11.5,12.1,19.9c0,3-0.6,6-1.8,8.7l-0.6,1.3c-12.6,26-38.9,42.5-67.8,42.5c-41,0-74.2-33.2-74.2-74.2
	s33.2-74.2,74.2-74.2l0,0h3.3c11.9,0.5,23.5,3.8,33.8,9.7v-71.3H761V395c-0.4,13-10.7,23.5-23.7,24c-13,0.4-25.7-4-35.7-12.4
	c-5.2-4.1-11.7-6.3-18.3-6.4H680c-16.6,0-30.1,13.5-30.1,30.1s13.5,30.1,30.1,30.1c10.6,0,20.4-5.6,25.8-14.7L705.7,445.9z
	 M140.9,387.5c0,13-10.5,23.5-23.5,23.5S94,400.4,94,387.5c0,0,0,0,0,0c0-13,10.5-23.5,23.5-23.5c0,0,0,0,0,0
	C130.4,364,140.9,374.5,140.9,387.5C140.9,387.5,140.9,387.5,140.9,387.5L140.9,387.5z M754.2,482c-0.2,12.6,9.8,23.1,22.5,23.3
	c12.6,0.2,23.1-9.8,23.3-22.5c0.2-12.6-9.8-23.1-22.5-23.3c-0.1,0-0.3,0-0.4,0c-12.5-0.2-22.7,9.8-22.9,22.3
	C754.2,481.9,754.2,481.9,754.2,482z M758.3,482c0.4-10.3,9.1-18.3,19.4-17.9c10.3,0.4,18.3,9.1,17.9,19.4
	c-0.4,10-8.6,17.9-18.6,17.9c-10.3,0.1-18.7-8.1-18.9-18.3c0-0.4,0-0.7,0-1.1H758.3z M767.7,494.7h4.1v-11.4h4.6l7.2,11.3h4.6
	l-7.5-11.7c3.7,0.1,6.9-2.8,7-6.5c0-0.2,0-0.4,0-0.7c0-5.1-3-7.6-9.2-7.6h-10.2L767.7,494.7z M771.8,471.8h5.3c2.8,0,5.8,0.6,5.8,4
	c0,3.5-3.3,4.6-7,4.6h-4.3L771.8,471.8z"/>
</svg>
