<?xml version="1.0" encoding="utf-8"?>
<!-- Generator: Adobe Illustrator 26.0.2, SVG Export Plug-In . SVG Version: 6.00 Build 0)  -->
<svg version="1.1" id="Layer_1" xmlns="http://www.w3.org/2000/svg" xmlns:xlink="http://www.w3.org/1999/xlink" x="0px" y="0px"
	 viewBox="0 0 800 800" style="enable-background:new 0 0 800 800;" xml:space="preserve">
<style type="text/css">
	.st0{fill-rule:evenodd;clip-rule:evenodd;fill:#FFFFFF;}
	.st1{fill:#FFFFFF;}
</style>
<g>
	<path class="st0" d="M252.8,722.8h-61.9V666h60.9v12.6h-44.4v9.7h42v11.9h-42v9.8h45.3v12.8H252.8z"/>
	<path class="st0" d="M609.1,722.8h-60.9v-55.9h60v12.3h-43.7v9.5h41.3v11.7h-41.3v9.6h44.6L609.1,722.8L609.1,722.8z"/>
	<path class="st0" d="M336.8,722.8h-25l-33-42.5h-0.3v42.5H262V666h25.5l32.6,42.6h0.3V666h16.4V722.8L336.8,722.8z"/>
	<path class="st0" d="M535.3,722.8h-25l-33-42.5H477v42.5h-16.5V666H486l32.6,42.6h0.3V666h16.5L535.3,722.8L535.3,722.8z"/>
	<path class="st0" d="M385.2,723.6c-5.3,0-9.8-0.1-13.6-0.4c-3.3-0.2-6.6-0.7-9.8-1.5c-2.3-0.6-4.5-1.6-6.5-3
		c-1.7-1.3-3-3.1-3.9-5.1c-1-2.4-1.7-5-1.9-7.6c-0.3-3.5-0.5-7-0.5-10.5v-1.7c0-3.5,0.1-7.1,0.5-10.6c0.2-2.6,0.9-5.2,1.9-7.6
		c0.9-2,2.2-3.7,3.9-5c1.9-1.4,4.2-2.4,6.5-3c3.2-0.8,6.4-1.3,9.7-1.4c3.8-0.2,8.3-0.4,13.6-0.4h2.5c4.4,0,8.2,0.1,11.5,0.3
		c2.8,0.1,5.7,0.5,8.5,1c2,0.4,4,1.1,5.9,2c1.5,0.8,2.7,1.9,3.7,3.3c0.9,1.5,1.6,3.1,1.9,4.8c0.4,2.2,0.5,4.3,0.5,6.5v2.2h-16v-0.7
		c0-1.1-0.2-2.2-0.6-3.3c-0.5-1-1.3-1.7-2.4-2.1c-1.6-0.6-3.2-1-4.9-1.1c-2.1-0.2-4.9-0.3-8.4-0.3h-1.4c-3.1,0-5.8,0.1-8.1,0.2
		c-1.9,0.1-3.7,0.3-5.6,0.7c-1.3,0.3-2.5,0.8-3.5,1.6c-0.9,0.7-1.6,1.7-1.9,2.7c-0.5,1.4-0.7,2.8-0.8,4.3c-0.1,1.7-0.2,3.8-0.2,6.2
		v1c0,2.4,0.1,4.4,0.2,6c0.1,1.4,0.4,2.9,0.8,4.2c0.4,1.1,1.1,2,1.9,2.7c1,0.8,2.2,1.3,3.5,1.6c1.8,0.4,3.7,0.6,5.6,0.7
		c2.2,0.1,4.9,0.2,8.1,0.2h1.4c2.6,0,4.8,0,6.6-0.1c1.8-0.1,3.4-0.2,4.7-0.4c1-0.1,2.1-0.4,3-0.9c0.7-0.3,1.3-0.8,1.8-1.4
		c0.4-0.6,0.7-1.2,0.8-1.9c0.1-0.9,0.2-1.7,0.2-2.6v-1.6h-21.8v-11h37.6v12.6c0,2.4-0.2,4.8-0.5,7.2c-0.3,1.9-1,3.7-1.9,5.3
		c-0.9,1.5-2.2,2.8-3.7,3.7c-1.8,1.1-3.9,1.9-6,2.4c-2.8,0.6-5.7,1.1-8.6,1.2c-3.4,0.2-7.2,0.4-11.7,0.4L385.2,723.6z"/>
	<path class="st0" d="M448.4,723h-16.7v-56.4h16.7V723z"/>
	<path class="st0" d="M63.2,636.2c-8.1,0-15.1-0.2-21.2-0.7c-5.3-0.3-10.5-1-15.7-2.2c-3.8-0.8-7.5-2.3-10.9-4.2
		c-2.8-1.7-5.2-4-6.9-6.7c-1.8-2.9-3.1-6.2-3.6-9.6c-0.8-4.3-1.1-8.6-1.1-13v-64.1H33v54.6c0,3.4,0.1,6.3,0.4,8.7
		c0.2,2.1,0.7,4.2,1.4,6.2c0.7,1.6,1.7,3.1,3.1,4.1c1.6,1.2,3.5,2,5.4,2.5c2.7,0.7,5.5,1.1,8.3,1.2c3.3,0.2,7.2,0.3,11.8,0.3H66
		c4.6,0,8.5-0.1,11.8-0.3c2.8-0.1,5.6-0.5,8.3-1.2c2-0.4,3.8-1.3,5.4-2.5c1.4-1.1,2.5-2.5,3.1-4.1c0.8-2,1.3-4,1.5-6.2
		c0.2-2.5,0.3-5.3,0.3-8.6v-54.7h29.2v64.1c0,4.3-0.3,8.7-1,13c-0.5,3.4-1.7,6.7-3.5,9.6c-1.7,2.7-4.1,5-6.8,6.7
		c-3.4,2-7.1,3.4-10.9,4.2c-5.2,1.2-10.5,1.9-15.8,2.2c-6.1,0.4-13.3,0.6-21.4,0.7H63.2z"/>
	<path class="st0" d="M275.9,635h-43.7l-57.5-74.3h-0.6V635h-28.6v-99.4h44.4l56.8,74.4h0.6v-74.4h28.6V635L275.9,635z"/>
	<path class="st0" d="M362,585.8c5,0,9-0.1,12-0.5c2.4-0.1,4.7-0.8,6.8-1.9c1.5-0.9,2.6-2.4,3-4.1c0.5-2.3,0.8-4.6,0.7-6.9v-1.7
		c0.1-2.3-0.2-4.6-0.7-6.8c-0.4-1.7-1.5-3.1-3.1-4c-2.1-1.1-4.5-1.7-6.8-1.9c-3-0.3-7-0.5-12-0.5h-36.4v28.2H362V585.8z M414.1,635
		h-28.9v-8c0-2.5-0.1-5-0.3-7.5c-0.2-1.8-0.7-3.6-1.5-5.3c-0.7-1.4-1.8-2.6-3.2-3.5c-1.7-1-3.5-1.7-5.4-2c-2.7-0.5-5.5-0.9-8.3-1
		c-3.3-0.2-7.2-0.3-11.7-0.3h-29.2V635h-28.9v-99.4h77.1c6.7-0.1,13.4,0.4,20,1.5c4.4,0.7,8.7,2.4,12.3,5c3,2.4,5.2,5.6,6.2,9.3
		c1.3,4.7,1.8,9.5,1.7,14.4v3.5c0,3.4-0.3,6.9-0.9,10.2c-0.5,2.7-1.5,5.2-3,7.6c-1.4,2.1-3.2,3.9-5.3,5.2c-2.5,1.5-5.2,2.6-8,3.1
		v0.6c2.9,0.4,5.8,1.2,8.6,2.2c2.1,0.8,3.9,2.1,5.3,3.9c1.4,2,2.3,4.4,2.6,6.8c0.5,3.6,0.8,7.2,0.7,10.8L414.1,635L414.1,635z"/>
	<path class="st0" d="M541,635H433v-99.4h106.3v22H462v16.9h73.3v20.8H462v17.1h79V635L541,635z"/>
	<path class="st0" d="M638.7,596.5l-20.3-39.9h-0.7l-20.1,39.9H638.7z M689.8,635.1h-31.5l-9.1-17.8h-62l-9,17.8H547l53.4-99.4h35.9
		L689.8,635.1z"/>
	<path class="st0" d="M796.2,635.1h-95.7v-99.4h29.2V612h66.5V635.1L796.2,635.1z"/>
	<path class="st0" d="M519.5,306.3L519.5,306.3c-3.5,16.7-18.9,59.6-68,82.8L431.7,367l-33.3,33.5c-38.4-0.5-74.4-19-97.2-49.9
		c3.5,1.1,7.2,1.8,10.9,2c5.4,0.1,11.4-1.9,11.4-11.1v-90.3c0.3-8.2-6.1-15.1-14.3-15.4c-1.5-0.1-3,0.1-4.4,0.5
		c-15.4,3.5-27.7,42-27.7,42c-0.3-36,15.1-70.2,42.4-93.8c23-19.5,45.4-26.2,62.4-28.8c-16.8,9.6-26.3,25.2-26.3,38.4
		c0,21.1,12.7,18.6,16.5,15.5v121.9c0.6,1.5,1.5,3,2.5,4.3c3.4,4.7,8.9,7.5,14.8,7.4c12.7,0,29.3-14.5,29.3-14.5V230
		c0-10-7.6-22.2-15.1-26.3c0,0,14-2.5,24.9,5.8l0,0c2-2.5,4.2-4.9,6.5-7.1c25.2-24.8,49-31.8,68.8-35.3l0,0c0,0-36.1,28.4-36.1,66.3
		c0,28.3,0.7,97.2,0.7,97.2C481.6,343.4,501.5,324.8,519.5,306.3z"/>
	<path class="st0" d="M400,76.4c-111,0-201,90-201,201s90,201,201,201s201-90,201-201l0,0C601,166.4,511,76.4,400,76.4L400,76.4z
		 M400,470.4c-106.6,0-193-86.4-193-193s86.4-193,193-193s193,86.4,193,193l0,0C593,384,506.6,470.4,400,470.4z"/>
</g>
<g>
	<path class="st1" d="M511.5,258.7c-10.1,0-17.9-5-17.6-12.1c0.2-4.7,3.4-7.6,6.9-7.6c3.8,0,6,2.8,5.8,6c-0.2,3.2-2.3,5.4-5.9,6
		l0,0.3c1.2,0.9,3.5,2,8,2c8.4,0,13.7-3.2,14.1-9.9c0.5-8.9-8.1-12.3-22.5-12.6l-1.6-1.7l3.2-28h26.6l3.9-5.9h2.3l-3,16.6l-26.2-1.7
		l-0.5,8.9c18.5,0.8,30.1,7.4,29.4,20.8C534,251,525.6,258.7,511.5,258.7z"/>
</g>
</svg>
