<?xml version="1.0" encoding="utf-8"?>
<!-- Generator: Adobe Illustrator 26.0.2, SVG Export Plug-In . SVG Version: 6.00 Build 0)  -->
<svg version="1.1" id="layer" xmlns="http://www.w3.org/2000/svg" xmlns:xlink="http://www.w3.org/1999/xlink" x="0px" y="0px"
	 viewBox="0 0 800 800" style="enable-background:new 0 0 800 800;" xml:space="preserve">
<style type="text/css">
	.st0{fill:#FFFFFF;}
</style>
<g>
	<path class="st0" d="M340.5,371h10.4v9.3h-10.4V371z M340.5,388.1h10.4v41.3h-10.4V388.1z"/>
	<path class="st0" d="M476.9,369.9c16.3-0.4,29.9,12.5,30.3,28.8c0,0.4,0,0.7,0,1.1c0.5,16.7-12.5,30.7-29.2,31.3
		c-16.7,0.5-30.7-12.5-31.3-29.2c0-0.7,0-1.4,0-2.1c-0.1-16.3,12.9-29.6,29.2-29.9C476.1,369.9,476.5,369.9,476.9,369.9z
		 M476.9,420.7c10.9-0.3,19.6-9.3,19.4-20.3c0-0.1,0-0.4,0-0.5c0.5-10.7-7.8-19.6-18.4-20.1c-10.7-0.5-19.6,7.8-20.1,18.4
		c0,0.5,0,1.2,0,1.7c-0.7,10.9,7.8,20.3,18.7,20.9C476.4,420.7,476.6,420.7,476.9,420.7z"/>
	<path class="st0" d="M548.5,380.1h-19.2V371h49v9.1H559v49.4h-10.7v-49.4H548.5z"/>
	<path class="st0" d="M630.8,369.9c16.3-0.4,29.9,12.5,30.3,28.8c0,0.4,0,0.7,0,1.1c0.5,16.7-12.5,30.7-29.2,31.3
		c-16.7,0.5-30.7-12.5-31.3-29.2c0-0.7,0-1.4,0-2.1c-0.1-16.3,13-29.8,29.4-29.9C630.3,369.9,630.5,369.9,630.8,369.9z M630.8,420.7
		c10.9-0.3,19.6-9.3,19.4-20.3c0-0.1,0-0.4,0-0.5c0.5-10.7-7.8-19.6-18.4-20.1c-10.7-0.5-19.6,7.8-20.1,18.4c0,0.5,0,1.2,0,1.7
		c-0.7,10.9,7.8,20.3,18.7,20.9C630.4,420.7,630.7,420.7,630.8,420.7z"/>
	<path class="st0" d="M689.8,371h22.6c9.9-0.4,18.2,7.2,18.7,17.1c0,0.7,0,1.3,0,1.8c0.5,10.1-7.2,18.7-17.2,19.2
		c-0.4,0-0.9,0-1.3,0h-12v20.1h-10.7L689.8,371L689.8,371z M710.5,400.2c5.1,0.4,9.5-3.6,9.9-8.6c0-0.5,0-0.9,0-1.4
		c0.4-5-3.3-9.5-8.3-9.9c-0.5,0-0.9,0-1.4,0h-10.1v19.9H710.5z"/>
	<path class="st0" d="M758.7,371h35v9.1h-24.2v15.3h19.6v9.1h-19.6v15.8H795v9.1h-36.3V371z"/>
	<path class="st0" d="M392.2,420.3c1.6-1.6,3-3.4,4.2-5.3l30.6-44h-46.7v9.1h29c-1.6,1.6-3,3.4-4.2,5.3l-30.7,44.1H423v-9.1h-30.8
		V420.3z"/>
	<path class="st0" d="M158.6,270.8c0.3-1.1,0.4-2.1,0.4-3.3c0-8.2-6.7-14.9-14.9-14.9s-14.9,6.7-14.9,14.9s6.6,14.9,14.7,14.9
		c2.6,0,5.1-0.8,7.4-2.1c3.3,6.8,6.7,13.7,10.1,20.5c4.9,10,9.7,20,14.6,30.2c9.5,20.1,18.6,40.6,26.5,61.2
		c1.3,3.4,2.4,6.8,3.7,10.1c-13.4-0.9-27.5-2.6-40.8-4.7c-1.1-11.7-11.5-20.3-23.2-19.2c-3.4,0.3-6.6,1.4-9.5,3.3
		c-7.2-8.6-15.3-16.5-24-23.6c-4.6-3.7-9.5-7.1-14.6-10c-2.6-1.6-5.5-2.9-8.4-4c-3.4-1.3-7-1.7-10.7-1.3c-4.5,0.7-8.3,3.7-9.9,8
		c-1.2,3.3-1.6,6.7-1.2,10.1c0.5,5.9,1.6,11.7,3.3,17.4c0.7,2.2,1.4,4.2,2.1,6.5c-29.2-0.9-57.1,2.6-63.6,18
		C-4.9,429,85.9,498,129.5,529.2c-0.3,1.1-0.4,2.1-0.4,3.3c0,8.2,6.7,14.9,14.9,14.9s14.9-6.7,14.9-14.9s-6.6-14.9-14.7-14.9
		c-2.6,0-5.1,0.8-7.4,2.1c-3.3-6.8-6.7-13.7-10.1-20.5c-4.9-10-9.7-20-14.6-30.2c-9.5-20.1-18.3-40.6-26.3-61.2
		c-1.3-3.4-2.4-6.8-3.7-10.3c13.4,0.9,27.4,2.6,40.8,4.7c1.2,11.7,11.6,20.3,23.3,19.1c3.3-0.3,6.6-1.4,9.3-3.2
		c7.2,8.6,15.3,16.5,24,23.6c4.5,3.7,9.3,7.1,14.5,10c2.6,1.6,5.5,2.9,8.4,4c3.4,1.3,7,1.7,10.7,1.3c4.5-0.7,8.3-3.7,9.9-8
		c1.1-3.3,1.4-6.7,1.2-10.1c-0.4-5.9-1.4-11.9-3.2-17.5c-0.7-2.2-1.4-4.2-2.1-6.5c2.8,0,5.5,0,8.3,0c26.2,0,49.4-4.2,55.3-18.3
		C293.2,371,202.2,302,158.6,270.8z M79.1,410.7c8.8,20.7,18.7,40.7,29,60.6c5.1,9.9,10.4,19.8,15.8,29.5c3.2,5.8,6.3,11.5,9.7,17.2
		C58,463.8,12.6,418.1,16.9,408c4.1-9.6,28-12,56.9-10.7C75.5,401.8,77.3,406.3,79.1,410.7z M75.7,376.8c-1.3-5.1-2.1-10.3-2.4-15.5
		c-0.1-2.1,0.1-4.2,0.8-6.3c0.1-0.5,0.5-1.1,0.9-1.3c0.5-0.3,1.1-0.5,1.6-0.5c4.5,0.3,8.8,1.8,12.5,4.5c4.5,2.8,8.8,5.9,12.8,9.5
		c8.2,7,15.7,14.7,22.3,23.3l0,0l0,0c0,0.3,0.4,0.3,0.7,0.5l0,0c-13-1.7-29.8-4-46.6-5C77.4,382.7,76.3,379.7,75.7,376.8z
		 M212.5,423.6c1.3,5.1,2.1,10.3,2.4,15.5c0.1,2.1-0.1,4.2-0.9,6.3c-0.1,0.5-0.5,1.1-0.9,1.3c-0.5,0.4-1.1,0.5-1.6,0.5
		c-4.5-0.3-8.7-1.8-12.4-4.5c-4.5-2.8-8.7-5.9-12.8-9.5c-8.2-7-15.7-14.7-22.3-23.3l0,0l0,0c-0.3-0.1-0.4-0.4-0.7-0.5l0,0
		c12.9,1.7,29.6,4,46.3,5C210.8,417.7,211.8,420.7,212.5,423.6z M271.3,392.4c-4.1,9.6-28,12-56.9,10.5c-1.7-4.5-3.4-9-5.4-13.3
		c-8.8-20.7-18.7-40.7-29-60.6c-5.1-9.9-10.4-19.8-15.8-29.5c-3.2-5.8-6.3-11.5-9.6-17.1C217.6,327.8,276.5,380.1,271.3,392.4z"/>
</g>
</svg>
