<?xml version="1.0" encoding="utf-8"?>
<!-- Generator: Adobe Illustrator 26.0.2, SVG Export Plug-In . SVG Version: 6.00 Build 0)  -->
<svg version="1.1" id="Layer_1" xmlns="http://www.w3.org/2000/svg" xmlns:xlink="http://www.w3.org/1999/xlink" x="0px" y="0px"
	 viewBox="0 0 800 800" style="enable-background:new 0 0 800 800;" xml:space="preserve">
<style type="text/css">
	.st0{fill-rule:evenodd;clip-rule:evenodd;fill:#FFFFFF;}
	.st1{enable-background:new    ;}
	.st2{fill:#FFFFFF;}
</style>
<path class="st0" d="M226.3,200.8c0,56.6,89.1,237.3,173.6,237.3l0,0c84.5,0,173.9-172.7,173.9-243.8c0-44.9-41.8-117.6-174.4-117.6
	C266.8,76.6,226.3,157,226.3,200.8L226.3,200.8z M338.7,213.5c-31.7-34.2-51.3-68.8-51.3-68.8s32.4-16.1,53.5-20.4
	c1.8-0.4,3.6-0.8,5.5-1.2c20.2-4.3,45.4-9.7,81.6,3.4c75.4,27.1,107.6,77.7,107.6,77.7s-48.5-39.1-102-46.9
	c-30.8-4.5-88.1,13.8-88.1,13.8s19.9,21.1,36.1,51.9c2.6,4.9,5,9.3,7.4,13.6c12.7,22.8,22.4,40.1,22.4,85.2
	c0,32.9-24.9,81.9-24.9,81.9s14-63.8,2.7-114.2c-8.1-36.4-14.4-42-29.2-55.3C354.4,229.1,347.5,222.9,338.7,213.5L338.7,213.5z"/>
<g class="st1">
	<path class="st2" d="M94.3,606.3c0-20.9,0-24.6-0.3-28.9c-0.3-4.6-1.3-6.7-5.8-7.6c-1.1-0.3-3.3-0.4-4.6-0.4
		c-0.5,0-1.1-0.3-1.1-0.8c0-0.8,0.7-1.1,2.1-1.1c6,0,14.5,0.4,15.1,0.4c1.5,0,11.7-0.4,15.8-0.4c8.4,0,17.4,0.8,24.5,5.9
		c3.3,2.4,9.2,9,9.2,18.2c0,9.9-4.2,19.8-16.2,30.9c11,14.1,20.1,26,27.9,34.3c7.2,7.6,13,9.1,16.3,9.6c2.5,0.4,4.4,0.4,5.2,0.4
		c0.7,0,1.2,0.4,1.2,0.8c0,0.8-0.8,1.1-3.2,1.1h-9.5c-7.5,0-10.9-0.7-14.3-2.5c-5.8-3.1-10.4-9.6-18.1-19.7
		c-5.6-7.4-11.9-16.3-14.6-19.8c-0.5-0.5-0.9-0.8-1.7-0.8l-16.5-0.3c-0.7,0-0.9,0.4-0.9,1.1v3.2c0,12.9,0,23.4,0.7,29.1
		c0.4,3.9,1.2,6.8,5.2,7.4c1.9,0.3,4.8,0.5,6,0.5c0.8,0,1.1,0.4,1.1,0.8c0,0.7-0.7,1.1-2.1,1.1c-7.4,0-15.8-0.4-16.5-0.4
		c-0.1,0-8.6,0.4-12.6,0.4c-1.5,0-2.1-0.3-2.1-1.1c0-0.4,0.3-0.8,1.1-0.8c1.2,0,2.8-0.3,4-0.5c2.7-0.5,3.3-3.5,3.9-7.4
		c0.7-5.6,0.7-16.2,0.7-29.1V606.3z M105,617.9c0,0.7,0.3,1.2,0.9,1.6c2,1.2,8.2,2.1,14.1,2.1c3.2,0,7-0.4,10-2.5
		c4.7-3.2,8.2-10.4,8.2-20.6c0-16.7-8.8-26.8-23.2-26.8c-4,0-7.6,0.4-9,0.8c-0.7,0.3-1.1,0.8-1.1,1.6V617.9z"/>
	<path class="st2" d="M214.2,606.3c0-20.9,0-24.6-0.3-28.9c-0.3-4.6-1.3-6.7-5.8-7.6c-0.9-0.3-2.7-0.3-3.9-0.4
		c-0.9-0.1-1.7-0.3-1.7-0.8c0-0.8,0.7-1.1,2.1-1.1c3.1,0,6.7,0,15.1,0.4c0.9,0,27.6,0,30.7-0.1c2.9-0.1,5.4-0.4,6.2-0.8
		c0.8-0.4,1.1-0.5,1.5-0.5s0.5,0.5,0.5,1.2c0,0.9-0.8,2.5-1.1,6.3c-0.1,2-0.3,4.6-0.5,8c-0.1,1.3-0.5,2.3-1.1,2.3
		c-0.8,0-1.1-0.7-1.1-1.7c0-1.7-0.3-3.3-0.7-4.4c-0.9-3.1-3.8-4.4-9.6-5c-2.3-0.3-16.9-0.4-18.4-0.4c-0.5,0-0.8,0.4-0.8,1.3v37
		c0,0.9,0.1,1.3,0.8,1.3c1.7,0,18.2,0,21.3-0.3c3.6-0.3,5.4-0.7,6.7-2.3c0.7-0.8,1.1-1.3,1.6-1.3c0.4,0,0.7,0.3,0.7,1.1
		s-0.7,3.1-1.1,7.5c-0.4,4.2-0.4,7.2-0.5,9.1c-0.1,1.3-0.4,2-0.9,2c-0.8,0-0.9-1.1-0.9-2.1c0-1.2-0.1-2.5-0.5-3.8
		c-0.5-2-2.1-3.9-7-4.4c-3.6-0.4-16.9-0.7-19.2-0.7c-0.7,0-0.9,0.4-0.9,0.9v11.8c0,4.6-0.1,20.1,0,22.9c0.3,5.5,1.1,8.4,4.4,9.8
		c2.3,0.9,5.9,1.2,11.1,1.2c4,0,8.4-0.1,12.1-1.2c4.3-1.3,5.8-4.2,6.8-9.9c0.3-1.5,0.5-2,1.2-2c0.8,0,0.8,1.1,0.8,2
		c0,1.1-1.1,10.2-1.7,13c-0.9,3.5-2,3.5-7.2,3.5c-9.9,0-14.3-0.3-19.6-0.4c-5.4-0.1-11.5-0.4-16.7-0.4c-3.2,0-6.4,0.5-9.9,0.4
		c-1.5,0-2.1-0.3-2.1-1.1c0-0.4,0.7-0.7,1.5-0.8c1.3-0.1,2.1-0.1,3.1-0.4c2.8-0.7,4.6-2.5,4.8-12.6c0.1-5.2,0.3-12.1,0.3-24V606.3z"
		/>
	<path class="st2" d="M323.2,629.2c-0.7,0-1.1,0.4-1.3,1.1l-8,23.7c-1.2,3.3-1.9,6.6-1.9,9c0,2.7,2.5,3.9,4.8,3.9c0.4,0,0.8,0,1.2,0
		c1.3,0,1.7,0.3,1.7,0.8c0,0.8-1.2,1.1-2.4,1.1c-3.2,0-8.6-0.4-10-0.4s-8.8,0.4-15.1,0.4c-1.7,0-2.5-0.3-2.5-1.1
		c0-0.5,0.7-0.8,1.9-0.8c0.9,0,2.1-0.1,3.2-0.3c6.2-0.8,8.8-5.9,11.3-12.6l30.4-83.2c1.6-4.4,2.1-5.2,2.9-5.2s1.3,0.7,2.9,4.8
		c2,5.1,23,60.4,31.2,80.8c4.8,11.9,8.7,14.1,11.5,14.9c2,0.7,4.2,0.8,5.2,0.8c0.8,0,1.5,0.1,1.5,0.8c0,0.8-1.2,1.1-2.7,1.1
		c-2,0-11.8,0-21-0.3c-2.5-0.1-4-0.1-4-0.9c0-0.5,0.4-0.8,0.9-0.9c0.8-0.3,1.6-1.5,0.8-3.6l-12.5-33c-0.3-0.5-0.5-0.8-1.2-0.8H323.2
		z M350.3,624.4c0.7,0,0.7-0.4,0.5-0.9l-12.7-36.2c-0.7-2-1.3-2-2,0l-11.8,36.2c-0.3,0.7,0,0.9,0.4,0.9H350.3z"/>
	<path class="st2" d="M429.7,606.3c0-20.9,0-24.6-0.3-28.9c-0.3-4.6-1.3-6.7-5.8-7.6c-1.1-0.3-3.3-0.4-4.6-0.4
		c-0.5,0-1.1-0.3-1.1-0.8c0-0.8,0.7-1.1,2.1-1.1c6,0,14.1,0.4,15.1,0.4c2.9,0,10.7-0.4,16.9-0.4c16.7,0,22.8,5.6,24.9,7.6
		c2.9,2.8,6.7,8.8,6.7,17.5c0,17.4-13.9,30.3-33,30.3c-0.7,0-2.1,0-2.8-0.1c-0.7,0-1.5-0.3-1.5-0.9c0-1.1,0.8-1.2,3.6-1.2
		c13,0,23.2-8.8,23.2-22.9c0-3.3-0.4-12.3-7.5-19.6c-7.1-7.2-15.3-6.7-18.4-6.7c-2.3,0-4.6,0.3-5.8,0.8c-0.8,0.3-1.1,1.2-1.1,2.5
		v55.1c0,12.9,0,23.4,0.7,29.1c0.4,3.9,1.2,6.8,5.2,7.4c1.9,0.3,4.8,0.5,6,0.5c0.8,0,1.1,0.4,1.1,0.8c0,0.7-0.7,1.1-2.1,1.1
		c-7.4,0-15.8-0.4-16.5-0.4c-0.4,0-8.8,0.4-12.9,0.4c-1.5,0-2.1-0.3-2.1-1.1c0-0.4,0.3-0.8,1.1-0.8c1.2,0,2.8-0.3,4-0.5
		c2.7-0.5,3.3-3.5,3.9-7.4c0.7-5.6,0.7-16.2,0.7-29.1V606.3z"/>
	<path class="st2" d="M531.8,606.3c0-20.9,0-24.6-0.3-28.9c-0.3-4.6-1.3-6.7-5.8-7.6c-0.9-0.3-2.7-0.3-3.9-0.4
		c-0.9-0.1-1.7-0.3-1.7-0.8c0-0.8,0.7-1.1,2.1-1.1c3.1,0,6.7,0,15.1,0.4c0.9,0,27.6,0,30.7-0.1c2.9-0.1,5.4-0.4,6.2-0.8
		c0.8-0.4,1.1-0.5,1.5-0.5c0.4,0,0.5,0.5,0.5,1.2c0,0.9-0.8,2.5-1.1,6.3c-0.1,2-0.3,4.6-0.5,8c-0.1,1.3-0.5,2.3-1.1,2.3
		c-0.8,0-1.1-0.7-1.1-1.7c0-1.7-0.3-3.3-0.7-4.4c-0.9-3.1-3.8-4.4-9.6-5c-2.3-0.3-16.9-0.4-18.4-0.4c-0.5,0-0.8,0.4-0.8,1.3v37
		c0,0.9,0.1,1.3,0.8,1.3c1.7,0,18.2,0,21.3-0.3c3.6-0.3,5.4-0.7,6.7-2.3c0.7-0.8,1.1-1.3,1.6-1.3c0.4,0,0.7,0.3,0.7,1.1
		s-0.7,3.1-1.1,7.5c-0.4,4.2-0.4,7.2-0.5,9.1c-0.1,1.3-0.4,2-0.9,2c-0.8,0-0.9-1.1-0.9-2.1c0-1.2-0.1-2.5-0.5-3.8
		c-0.5-2-2.1-3.9-7-4.4c-3.6-0.4-16.9-0.7-19.2-0.7c-0.7,0-0.9,0.4-0.9,0.9v11.8c0,4.6-0.1,20.1,0,22.9c0.3,5.5,1.1,8.4,4.4,9.8
		c2.3,0.9,5.9,1.2,11.1,1.2c4,0,8.4-0.1,12.1-1.2c4.3-1.3,5.8-4.2,6.8-9.9c0.3-1.5,0.5-2,1.2-2c0.8,0,0.8,1.1,0.8,2
		c0,1.1-1.1,10.2-1.7,13c-0.9,3.5-2,3.5-7.2,3.5c-9.9,0-14.3-0.3-19.6-0.4c-5.4-0.1-11.5-0.4-16.7-0.4c-3.2,0-6.4,0.5-9.9,0.4
		c-1.5,0-2.1-0.3-2.1-1.1c0-0.4,0.7-0.7,1.5-0.8c1.3-0.1,2.1-0.1,3.1-0.4c2.8-0.7,4.6-2.5,4.8-12.6c0.1-5.2,0.3-12.1,0.3-24V606.3z"
		/>
	<path class="st2" d="M629.5,606.3c0-20.9,0-24.6-0.3-28.9c-0.3-4.6-1.3-6.7-5.8-7.6c-1.1-0.3-3.3-0.4-4.6-0.4
		c-0.5,0-1.1-0.3-1.1-0.8c0-0.8,0.7-1.1,2.1-1.1c6,0,14.5,0.4,15.1,0.4c1.5,0,11.7-0.4,15.8-0.4c8.4,0,17.4,0.8,24.5,5.9
		c3.3,2.4,9.2,9,9.2,18.2c0,9.9-4.2,19.8-16.2,30.9c11,14.1,20.1,26,27.9,34.3c7.2,7.6,13,9.1,16.3,9.6c2.5,0.4,4.4,0.4,5.2,0.4
		c0.7,0,1.2,0.4,1.2,0.8c0,0.8-0.8,1.1-3.2,1.1h-9.5c-7.5,0-10.8-0.7-14.3-2.5c-5.8-3.1-10.4-9.6-18.1-19.7
		c-5.6-7.4-11.9-16.3-14.6-19.8c-0.5-0.5-0.9-0.8-1.7-0.8l-16.5-0.3c-0.7,0-0.9,0.4-0.9,1.1v3.2c0,12.9,0,23.4,0.7,29.1
		c0.4,3.9,1.2,6.8,5.2,7.4c1.9,0.3,4.8,0.5,6,0.5c0.8,0,1.1,0.4,1.1,0.8c0,0.7-0.7,1.1-2.1,1.1c-7.4,0-15.8-0.4-16.5-0.4
		c-0.1,0-8.6,0.4-12.6,0.4c-1.5,0-2.1-0.3-2.1-1.1c0-0.4,0.3-0.8,1.1-0.8c1.2,0,2.8-0.3,4-0.5c2.7-0.5,3.3-3.5,3.9-7.4
		c0.7-5.6,0.7-16.2,0.7-29.1V606.3z M640.2,617.9c0,0.7,0.3,1.2,0.9,1.6c2,1.2,8.2,2.1,14.1,2.1c3.2,0,7-0.4,10-2.5
		c4.7-3.2,8.2-10.4,8.2-20.6c0-16.7-8.8-26.8-23.2-26.8c-4,0-7.6,0.4-9,0.8c-0.7,0.3-1.1,0.8-1.1,1.6V617.9z"/>
</g>
</svg>
