<?xml version="1.0" encoding="UTF-8"?>
<svg id="logo-helixcore-icon-reg" xmlns="http://www.w3.org/2000/svg" version="1.1" viewBox="0 0 789.4 537">
  <defs>
    <style>
      .st0 {
        fill: #fff;
      }
    </style>
  </defs>
  <path class="st0" d="M559.2,414.7V121.8c0-19.9-13.3-29.5-19-32.9-5.7-3.4-20.7-9.9-38,0l-3.1,1.7-183.1,106.2h0l-5.7,3.4-1.1.6-60.2,34.9c-17.3,9.7-19,26.1-19,32.6s2,23,19,32.9l134.5,78.6c.6-1.1.9-2.6,1.7-3.7l29.5-50.8-73.5-43.4c-8.5-4.8-12.2-14.8-9.4-23.8.6-6.5,4.3-12.8,10.2-16.5l131.7-76.1c7.1-4,15.6-3.4,21.9.9,6.8,3.4,11.6,10.5,11.6,18.7v9.1l-41.4,23.8h0l-76.6,44,76.6,44.3v-42.6l41.4-23.8v99.3c0,4.3-1.4,8.2-3.7,11.6,0,.3-.3.6-.6.9-5.7,9.9-18.4,13.3-28.4,7.7l-24.4-13.1-29.5,50.8c-.6,1.1-1.4,2.3-2.3,3.4l84,47.7c17,9.9,32.4,3.4,38,0s19-13.1,19-32.9l-.3-.6Z"/>
</svg>
