<?xml version="1.0" encoding="utf-8"?>
<!-- Generator: Adobe Illustrator 26.0.2, SVG Export Plug-In . SVG Version: 6.00 Build 0)  -->
<svg version="1.1" id="Layer_1" xmlns="http://www.w3.org/2000/svg" xmlns:xlink="http://www.w3.org/1999/xlink" x="0px" y="0px"
	 viewBox="0 0 800 800" style="enable-background:new 0 0 800 800;" xml:space="preserve">
<style type="text/css">
	.st0{fill:#FFFFFF;}
</style>
<g>
	<path class="st0" d="M116,634c-22.5,22.8-48.9,25.6-77.1,15.5c-21.3-7.7-32.8-26.1-32.8-48.7c0-30.1,0-60.1,0-90.2
		c0-7.8,1.4-9.2,9.4-9.3c13.1-0.2,17.6,4.3,17.6,17.5c0,26.3,0.3,52.6-0.1,78.8c-0.4,23.7,14.2,34.1,36.4,33.8c2.7,0,5.5-0.4,8.2-1
		c15.5-2.9,24.5-13.8,24.5-29.7c0-29.9,0-59.8,0-89.6c0-8.3,1.1-10,9.3-9.9c18.9,0.1,17.7-1.4,17.6,16.4
		c-0.1,26.6,0.2,53.2-0.1,79.9c-0.2,26,16.5,34.5,37.3,33.9c2.9-0.1,5.8-0.5,8.6-1.2c16.2-3.8,23.8-15.6,23.5-33.8
		c-0.5-29-0.4-58-0.4-87.1c0-5.9,2-7.8,7.7-8c4.1-0.2,8.2,0,12.3,0c4.9,0,7.2,2.6,7.3,7.4c0.1,1.5,0,3.1,0,4.6
		c-0.1,28.7-0.7,57.4-0.2,86c0.5,29-18.8,48.5-44.3,53.8c-12.8,2.7-25.6,1.8-38.2-1.6C131.9,648.8,123.2,642.7,116,634z"/>
	<path class="st0" d="M351.7,637.6c-18.7,20-50.8,19.3-68,9.5c-14.2-8.1-22.3-19.8-22.2-36.7c0.2-22.2,0-44.3,0.1-66.5
		c0-3.9-1.8-9.1,3.3-10.9c5.8-2,11.9-2,17.1,2.1c4.1,3.2,5.2,7.8,5.2,12.8c-0.1,19.2,0,38.5-0.1,57.7c-0.1,10,3,18.6,12.5,23
		c10.3,4.8,20.9,4.2,30.2-2.6c7.1-5.2,8.7-13.3,8.7-21.6c0.1-21.1,0.1-42.3,0.2-63.4c0-7.3,0.8-8.2,8.1-8.9
		c16.2-1.6,17.5-0.4,17.5,15.5c0,18.7,0,37.4,0,56.2c0,20.1,12.4,30.5,32.1,27.1c11.9-2,19.3-11,19.3-23.6c0.1-22,0-44,0-66
		c0-7.6,0.9-8.7,8.4-9.2c3.9-0.2,7.9,0,11.8,0.3c3.7,0.2,5.4,2.5,5.4,6.2c0,25.2,0.4,50.5,0,75.7c-0.3,18.2-15.2,33.7-35.7,37.8
		C385.6,656.2,366.9,653.1,351.7,637.6z"/>
	<path class="st0" d="M399.6,435.3c-15.1-0.1-28.2-9.1-33.4-23c-5.4-14.5-1.6-30.3,11-40.3c16.5-13.2,15.5-37.6,5.1-49.3
		c-1.6-1.8-3.3-3.5-5.1-5c-11.9-10.3-16.1-25.2-11.3-39.5c4.8-14.1,17.7-23.5,33.1-24.3c14.8-0.7,29.1,8.7,34.7,22.8
		c5.8,14.6,1.7,30.6-10.6,40.9c-14.4,12.2-17.3,32.8-6.5,47.5c1.9,2.6,4.3,4.8,6.8,7c11.8,10.3,15.9,25.9,10.6,40.1
		C428.6,426.5,415.4,435.4,399.6,435.3z"/>
	<path class="st0" d="M284.9,345.3c-0.1-11.4,3.9-21.1,12.9-27.9c16.9-12.8,17.1-41.6-0.1-54.8c-13.4-10.3-16.5-28.3-9.3-43.3
		c7.2-14.9,23.2-22.4,40.6-19.1c15,2.9,27,16.7,27.9,32.9c0.6,11.6-3.2,22.1-12.5,29.1c-17.3,12.9-18.2,42,0.1,55.9
		c13.1,10,16.1,28.7,8.5,43.4c-7.6,14.7-24.4,22.2-41,18.3C296.2,376.2,285,361.8,284.9,345.3z"/>
	<path class="st0" d="M479.5,199.1c15.1,0.2,28.7,9.7,33.7,23.6c5.2,14.3,0.9,30.1-10.8,40.1c-17.7,15.1-17.7,39.2,0,54.6
		c12.2,10.6,16.2,26.4,10.4,41c-5.5,13.9-19.8,23.3-34.3,22.6c-16.2-0.8-29.3-10.5-33.7-25.6c-4.2-14.5-1.1-28,10.8-37.1
		c18.3-14.2,17.3-43.4-0.1-56.3c-12-9-15.4-25.8-10-39.7C451,208.3,464.7,199,479.5,199.1z"/>
	<path class="st0" d="M690,600.9c1.5,16,15.2,25.9,26.4,28.6c13.1,3.1,25.8,2.2,37.5-5.5c1.3-0.8,2.8-1.7,4.2-1.7
		c9-0.2,18.1-0.1,28-0.1c-1.1,2-1.8,3.8-2.9,5.3c-12.9,16.7-30.6,23.7-51,24.4c-17.5,0.6-33.9-3-47.6-14.5
		c-19.6-16.5-23.8-38.2-18.4-62.1c5.2-23.4,21.3-36.7,43.7-42.2c19.6-4.8,38.9-3.2,56.7,7.3c17.1,10.1,25.9,25.5,27.2,45.2
		c0.6,9.5-5,15.3-14.4,15.4c-27.9,0-55.9,0-83.8,0C693.8,600.9,691.9,600.9,690,600.9z M689.8,580.1c26.5,0,52.7,0,79,0
		c-4-18.1-20.4-29.5-41.1-28.8C708.2,551.9,692.2,563.8,689.8,580.1z"/>
	<path class="st0" d="M532.6,651.3c-3.3-12.1,3.5-21.4,15.7-20.9c17.8,0.7,35.7,0.2,53.5,0.1c3.1,0,6.2-0.3,9.2-1
		c4.1-1,7.1-3.3,7.9-7.8c0.8-4.7-0.9-8.6-5-10.3c-7.9-3.2-16-6-24.1-8.5c-11.6-3.6-23.3-6.8-34.9-10.5c-3.8-1.3-7.4-3.6-10.8-5.9
		c-17.7-12.3-16.2-37.2,2.7-47.6c9-4.9,18.8-6.4,28.8-6.5c19.6-0.2,39.1,0.1,58.7-0.2c4.3,0,5.2,1.6,5.1,5.4
		c-0.4,10.4-5.7,15.8-16.1,15.8c-16.6,0-33.3,0-49.9,0c-9,0-13.2,2.4-14.2,8s1.8,9.5,10.6,12.3c11.6,3.6,23.5,6.2,35.2,9.6
		c6.9,2,13.8,4.2,20.3,7.2c16.1,7.3,22.3,17.8,20.5,33c-1.6,13.3-12,23.4-27.7,26.6c-4.2,0.8-8.5,1.3-12.8,1.4
		c-23.2,0.1-46.3,0.1-69.5,0.1C534.6,651.5,533.6,651.4,532.6,651.3z"/>
	<path class="st0" d="M400.1,144.9c20,0,36.1,15.9,36.2,35.8s-16.4,36.4-36.3,36.4c-19.6,0-36-16.3-36.2-36
		C363.6,161.1,379.9,144.9,400.1,144.9z"/>
	<path class="st0" d="M477.9,651.6c0-2.8,0-4.6,0-6.5c0-34.3,0-68.6,0-102.9c0-8.4,1.4-9.9,9.7-10.1c3.2-0.1,6.5,0.1,9.8,0.2
		c5,0.2,7.2,2.7,7.2,7.9c-0.2,11.5-0.1,23-0.1,34.5c0,23.8-0.1,47.7,0.1,71.5c0,4.2-1.1,5.7-5.5,5.5
		C492.4,651.3,485.5,651.6,477.9,651.6z"/>
	<path class="st0" d="M570.2,290.1c0,13.4-10.3,23.9-23.6,23.9c-13.4,0.1-24.1-10.7-23.9-24.2c0.2-13.3,10.7-23.8,23.9-23.7
		C559.9,266.2,570.2,276.7,570.2,290.1z"/>
	<path class="st0" d="M229.9,290.3c0-13.6,10.4-24.2,23.9-24.2c13.2,0.1,23.6,10.6,23.6,24c0,13.3-10.5,23.9-23.7,23.9
		C240.5,314,229.9,303.5,229.9,290.3z"/>
</g>
</svg>
